<svg xmlns="http://www.w3.org/2000/svg" xmlns:xlink="http://www.w3.org/1999/xlink" width="500" zoomAndPan="magnify" viewBox="0 0 375 374.999991" height="500" preserveAspectRatio="xMidYMid meet" version="1.0"><defs><g/><clipPath id="740e68b905"><path d="M 187.5 0 C 83.945312 0 0 83.945312 0 187.5 C 0 291.054688 83.945312 375 187.5 375 C 291.054688 375 375 291.054688 375 187.5 C 375 83.945312 291.054688 0 187.5 0 Z M 187.5 0 " clip-rule="nonzero"/></clipPath><clipPath id="81d89f177c"><path d="M 0 0 L 375 0 L 375 375 L 0 375 Z M 0 0 " clip-rule="nonzero"/></clipPath><clipPath id="abd1a4f745"><path d="M 187.5 0 C 83.945312 0 0 83.945312 0 187.5 C 0 291.054688 83.945312 375 187.5 375 C 291.054688 375 375 291.054688 375 187.5 C 375 83.945312 291.054688 0 187.5 0 Z M 187.5 0 " clip-rule="nonzero"/></clipPath><clipPath id="51ddaa7c46"><rect x="0" width="375" y="0" height="375"/></clipPath></defs><g clip-path="url(#740e68b905)"><g transform="matrix(1, 0, 0, 1, 0, 0)"><g clip-path="url(#51ddaa7c46)"><g clip-path="url(#81d89f177c)"><g clip-path="url(#abd1a4f745)"><rect x="-82.5" width="540" fill="#234984" height="539.999987" y="-82.499998" fill-opacity="1"/></g></g></g></g></g><g fill="#ffe8aa" fill-opacity="1"><g transform="translate(37.500002, 268.874982)"><g><path d="M 89.703125 -61.125 L 90.171875 -63.671875 L 49.734375 -63.671875 L 42.765625 -44.390625 C 38.265625 -31.992188 34.117188 -22.617188 30.328125 -16.265625 C 26.535156 -9.910156 22.78125 -5.609375 19.0625 -3.359375 C 15.34375 -1.117188 11.3125 0 6.96875 0 C 2.164062 0 -1.742188 -1.664062 -4.765625 -5 C -7.785156 -8.332031 -9.296875 -12.628906 -9.296875 -17.890625 C -9.296875 -21.921875 -8.753906 -24.863281 -7.671875 -26.71875 C -6.585938 -28.582031 -6.046875 -29.515625 -6.046875 -29.515625 C -6.046875 -29.515625 -5.382812 -29.203125 -4.0625 -28.578125 C -2.75 -27.960938 -0.695312 -27.65625 2.09375 -27.65625 C 7.207031 -27.65625 12.472656 -30.132812 17.890625 -35.09375 C 23.316406 -40.050781 28.894531 -49.425781 34.625 -63.21875 C 29.363281 -62.59375 25.335938 -61.546875 22.546875 -60.078125 C 19.753906 -58.609375 18.359375 -57.875 18.359375 -57.875 C 18.359375 -57.875 17.738281 -58.644531 16.5 -60.1875 C 15.257812 -61.738281 14.640625 -64.066406 14.640625 -67.171875 C 14.640625 -71.816406 16.304688 -75.53125 19.640625 -78.3125 C 22.972656 -81.101562 27.503906 -82.5 33.234375 -82.5 C 36.023438 -82.5 38.8125 -82.269531 41.59375 -81.8125 L 59.265625 -130.84375 C 62.828125 -140.757812 67.007812 -148.929688 71.8125 -155.359375 C 76.613281 -161.796875 82.691406 -166.5625 90.046875 -169.65625 C 97.410156 -172.75 106.59375 -174.296875 117.59375 -174.296875 C 127.050781 -174.296875 132.898438 -172.242188 135.140625 -168.140625 C 137.390625 -164.035156 137.738281 -157.644531 136.1875 -148.96875 L 117.125 -39.515625 C 116.039062 -32.847656 116.546875 -27.960938 118.640625 -24.859375 C 120.734375 -21.765625 123.71875 -20.21875 127.59375 -20.21875 C 131.46875 -20.21875 135.03125 -21.457031 138.28125 -23.9375 C 141.53125 -26.414062 144.351562 -29.242188 146.75 -32.421875 C 149.15625 -35.597656 150.90625 -38.269531 152 -40.4375 C 155.40625 -40.4375 156.875 -38.421875 156.40625 -34.390625 C 155.789062 -29.742188 153.46875 -24.75 149.4375 -19.40625 C 145.40625 -14.0625 140.328125 -9.488281 134.203125 -5.6875 C 128.085938 -1.894531 121.46875 0 114.34375 0 C 106.132812 0 99.429688 -2.59375 94.234375 -7.78125 C 89.046875 -12.976562 86.453125 -19.988281 86.453125 -28.8125 C 86.453125 -34.238281 86.722656 -39.429688 87.265625 -44.390625 C 87.804688 -49.347656 88.617188 -54.925781 89.703125 -61.125 Z M 55.546875 -79.71875 C 60.035156 -79.09375 65.144531 -78.429688 70.875 -77.734375 C 76.613281 -77.035156 83.742188 -76.613281 92.265625 -76.46875 L 105.28125 -150.140625 C 105.894531 -153.703125 106.238281 -156.488281 106.3125 -158.5 C 106.394531 -160.507812 106.4375 -161.515625 106.4375 -161.515625 C 101.320312 -161.515625 96.671875 -160.082031 92.484375 -157.21875 C 88.304688 -154.351562 84.664062 -150.632812 81.5625 -146.0625 C 78.46875 -141.5 75.992188 -136.582031 74.140625 -131.3125 Z M 55.546875 -79.71875 "/></g></g></g><g fill="#ffe8aa" fill-opacity="1"><g transform="translate(191.814974, 268.874982)"><g><path d="M 85.296875 -124.34375 L 74.609375 -63.21875 C 74.609375 -63.21875 75.769531 -63.0625 78.09375 -62.75 C 80.414062 -62.4375 83.515625 -62.28125 87.390625 -62.28125 C 96.210938 -62.28125 103.878906 -64.523438 110.390625 -69.015625 C 116.898438 -73.515625 121.972656 -79.632812 125.609375 -87.375 C 129.253906 -95.125 131.078125 -103.804688 131.078125 -113.421875 C 131.078125 -127.671875 126.3125 -139.25 116.78125 -148.15625 C 107.25 -157.0625 92.414062 -161.515625 72.28125 -161.515625 C 60.65625 -161.515625 51.28125 -159.960938 44.15625 -156.859375 C 37.03125 -153.765625 31.878906 -149.929688 28.703125 -145.359375 C 25.523438 -140.796875 23.9375 -136.269531 23.9375 -131.78125 C 23.9375 -128.519531 24.75 -125.921875 26.375 -123.984375 C 28 -122.046875 30.285156 -121.078125 33.234375 -121.078125 C 34.472656 -121.078125 35.441406 -121.191406 36.140625 -121.421875 C 36.835938 -121.660156 37.1875 -121.78125 37.1875 -121.78125 C 37.1875 -121.78125 37.222656 -121.625 37.296875 -121.3125 C 37.378906 -121 37.421875 -120.457031 37.421875 -119.6875 C 37.421875 -116.894531 35.945312 -114.023438 33 -111.078125 C 30.0625 -108.140625 25.644531 -106.671875 19.75 -106.671875 C 12.15625 -106.671875 6.191406 -108.800781 1.859375 -113.0625 C -2.472656 -117.320312 -4.640625 -122.941406 -4.640625 -129.921875 C -4.640625 -137.660156 -1.851562 -144.898438 3.71875 -151.640625 C 9.289062 -158.378906 17.8125 -163.835938 29.28125 -168.015625 C 40.75 -172.203125 55.3125 -174.296875 72.96875 -174.296875 C 94.507812 -174.296875 111.898438 -171.546875 125.140625 -166.046875 C 138.390625 -160.546875 148.070312 -153.109375 154.1875 -143.734375 C 160.3125 -134.367188 163.375 -123.796875 163.375 -112.015625 C 163.375 -99.929688 160.507812 -89.160156 154.78125 -79.703125 C 149.050781 -70.253906 140.914062 -62.859375 130.375 -57.515625 C 119.84375 -52.171875 107.375 -49.5 92.96875 -49.5 C 88.78125 -49.5 84.984375 -49.65625 81.578125 -49.96875 C 78.171875 -50.28125 75.148438 -50.664062 72.515625 -51.125 L 67.859375 -24.40625 C 66.460938 -16.34375 66.070312 -10.644531 66.6875 -7.3125 C 67.3125 -3.988281 67.625 -2.328125 67.625 -2.328125 C 67.625 -2.328125 66.617188 -1.9375 64.609375 -1.15625 C 62.597656 -0.382812 59.191406 0 54.390625 0 C 45.859375 0 40.429688 -1.972656 38.109375 -5.921875 C 35.785156 -9.878906 35.398438 -16.347656 36.953125 -25.328125 L 54.390625 -125.5 C 55.773438 -133.550781 56.15625 -139.203125 55.53125 -142.453125 C 54.914062 -145.710938 54.609375 -147.34375 54.609375 -147.34375 C 54.609375 -147.34375 55.613281 -147.726562 57.625 -148.5 C 59.644531 -149.28125 63.054688 -149.671875 67.859375 -149.671875 C 76.535156 -149.671875 81.992188 -147.691406 84.234375 -143.734375 C 86.484375 -139.785156 86.835938 -133.320312 85.296875 -124.34375 Z M 85.296875 -124.34375 "/></g></g></g></svg>